<svg width="570" height="90" viewBox="0 0 570 90" fill="none"
  xmlns="http://www.w3.org/2000/svg">
  <path d="M120.348 67H127.855L143.416 23.3154H136.06L124.162 59.4316H124.011L112.113 23.3154H104.787L120.348 67ZM162.458 67.7266C165.909 67.7266 168.876 67.2018 171.358 66.1523C173.861 65.0827 175.778 63.5791 177.11 61.6416C178.463 59.6839 179.139 57.373 179.139 54.709V54.6787C179.139 51.3083 178.109 48.6543 176.051 46.7168C174.012 44.7591 170.733 43.306 166.212 42.3574L161.459 41.3281C158.734 40.7428 156.726 39.9355 155.435 38.9062C154.143 37.877 153.497 36.5449 153.497 34.9102V34.8799C153.497 33.5882 153.86 32.4681 154.587 31.5195C155.313 30.571 156.343 29.8343 157.675 29.3096C159.007 28.7646 160.571 28.4922 162.367 28.4922C164.103 28.4922 165.627 28.7546 166.938 29.2793C168.25 29.7839 169.31 30.5205 170.117 31.4893C170.945 32.458 171.449 33.6286 171.631 35.001L171.691 35.3945H178.321L178.291 34.9102C178.13 32.4479 177.373 30.2985 176.021 28.4619C174.668 26.6051 172.832 25.1621 170.511 24.1328C168.19 23.1035 165.516 22.5889 162.488 22.5889C159.4 22.5889 156.666 23.1237 154.284 24.1934C151.903 25.2428 150.036 26.7161 148.684 28.6133C147.331 30.4902 146.645 32.6699 146.625 35.1523V35.1826C146.625 38.4118 147.674 41.0355 149.773 43.0537C151.872 45.0518 155.061 46.5049 159.34 47.4131L164.093 48.4121C166.999 49.0378 169.078 49.8753 170.329 50.9248C171.601 51.9541 172.236 53.3467 172.236 55.1025V55.1328C172.236 56.485 171.843 57.6657 171.056 58.6748C170.289 59.6839 169.199 60.4609 167.786 61.0059C166.373 61.5508 164.688 61.8232 162.73 61.8232C160.793 61.8232 159.077 61.5609 157.584 61.0361C156.09 60.5114 154.88 59.7646 153.951 58.7959C153.043 57.807 152.488 56.6465 152.286 55.3145L152.226 54.9209H145.596L145.626 55.375C145.808 57.9382 146.615 60.1481 148.048 62.0049C149.481 63.8415 151.418 65.2542 153.86 66.2432C156.323 67.2321 159.188 67.7266 162.458 67.7266ZM203.902 67.7266C207.132 67.7266 210.038 67.1211 212.621 65.9102C215.204 64.6992 217.324 63.0039 218.979 60.8242C220.654 58.6243 221.713 56.0713 222.157 53.165L222.218 52.8623H215.467L215.376 53.165C214.851 55.0016 214.054 56.5557 212.984 57.8271C211.915 59.0986 210.613 60.0674 209.079 60.7334C207.565 61.3792 205.84 61.7021 203.902 61.7021C201.218 61.7021 198.877 61.026 196.879 59.6738C194.881 58.3216 193.337 56.4043 192.247 53.9219C191.157 51.4193 190.612 48.4928 190.612 45.1426V45.1123C190.612 41.7419 191.157 38.8255 192.247 36.3633C193.337 33.901 194.871 31.9938 196.849 30.6416C198.847 29.2894 201.198 28.6133 203.902 28.6133C205.88 28.6133 207.626 28.9463 209.14 29.6123C210.674 30.2581 211.955 31.1966 212.984 32.4277C214.034 33.6589 214.791 35.1322 215.255 36.8477L215.437 37.4531H222.188L222.157 37.1504C221.713 34.2643 220.654 31.7314 218.979 29.5518C217.303 27.3721 215.174 25.6667 212.591 24.4355C210.007 23.2044 207.111 22.5889 203.902 22.5889C199.765 22.5889 196.183 23.5072 193.155 25.3438C190.128 27.1602 187.787 29.7536 186.132 33.124C184.477 36.4945 183.649 40.4906 183.649 45.1123V45.1426C183.649 49.7643 184.477 53.7705 186.132 57.1611C187.787 60.5316 190.128 63.1351 193.155 64.9717C196.203 66.8083 199.785 67.7266 203.902 67.7266ZM241.32 67.6357C244.348 67.6357 246.992 66.9697 249.252 65.6377C251.512 64.2855 253.268 62.3783 254.52 59.916C255.791 57.4538 256.427 54.5072 256.427 51.0762V51.0156C256.427 47.6048 255.791 44.6683 254.52 42.2061C253.268 39.7438 251.502 37.8568 249.222 36.5449C246.961 35.2129 244.317 34.5469 241.29 34.5469C238.283 34.5469 235.639 35.2129 233.358 36.5449C231.098 37.877 229.332 39.7741 228.061 42.2363C226.809 44.6986 226.184 47.625 226.184 51.0156V51.0762C226.184 54.487 226.809 57.4336 228.061 59.916C229.312 62.3783 231.068 64.2855 233.328 65.6377C235.609 66.9697 238.273 67.6357 241.32 67.6357ZM241.351 62.126C239.635 62.126 238.142 61.6921 236.87 60.8242C235.599 59.9564 234.61 58.7051 233.903 57.0703C233.217 55.4154 232.874 53.4173 232.874 51.0762V51.0156C232.874 48.6947 233.227 46.7168 233.934 45.082C234.64 43.4473 235.619 42.196 236.87 41.3281C238.142 40.4603 239.615 40.0264 241.29 40.0264C242.985 40.0264 244.469 40.4603 245.74 41.3281C247.012 42.1758 247.991 43.4271 248.677 45.082C249.363 46.7168 249.706 48.6947 249.706 51.0156V51.0762C249.706 53.4173 249.363 55.4154 248.677 57.0703C247.991 58.7051 247.022 59.9564 245.771 60.8242C244.519 61.6921 243.046 62.126 241.351 62.126ZM273.41 67.6357C275.691 67.6357 277.689 67.1009 279.404 66.0312C281.12 64.9414 282.452 63.4681 283.4 61.6113H283.521V67H290.121V23.3154H283.521V40.5713H283.4C282.432 38.6943 281.069 37.221 279.313 36.1514C277.578 35.0817 275.59 34.5469 273.35 34.5469C270.686 34.5469 268.354 35.223 266.356 36.5752C264.379 37.9072 262.835 39.8044 261.725 42.2666C260.635 44.7288 260.09 47.6553 260.09 51.0459V51.0762C260.09 54.4668 260.635 57.4033 261.725 59.8857C262.814 62.348 264.358 64.2552 266.356 65.6074C268.354 66.9596 270.706 67.6357 273.41 67.6357ZM275.136 61.9746C273.42 61.9746 271.937 61.5407 270.686 60.6729C269.434 59.805 268.465 58.5537 267.779 56.9189C267.113 55.264 266.78 53.3164 266.78 51.0762V51.0459C266.78 48.8057 267.113 46.8783 267.779 45.2637C268.465 43.6289 269.434 42.3776 270.686 41.5098C271.937 40.6217 273.42 40.1777 275.136 40.1777C276.791 40.1777 278.244 40.6318 279.495 41.54C280.746 42.4281 281.735 43.6895 282.462 45.3242C283.188 46.9388 283.552 48.846 283.552 51.0459V51.0762C283.552 53.276 283.188 55.1934 282.462 56.8281C281.756 58.4629 280.767 59.7344 279.495 60.6426C278.244 61.5306 276.791 61.9746 275.136 61.9746ZM310.404 67.6357C312.342 67.6357 314.098 67.3734 315.672 66.8486C317.246 66.3239 318.608 65.6074 319.759 64.6992C320.929 63.7708 321.878 62.7314 322.604 61.5811C323.331 60.4307 323.826 59.2298 324.088 57.9785L324.148 57.6455H317.912L317.821 57.8877C317.559 58.695 317.095 59.4316 316.429 60.0977C315.783 60.7435 314.965 61.2682 313.977 61.6719C312.988 62.0553 311.847 62.2471 310.556 62.2471C308.8 62.2471 307.276 61.8636 305.984 61.0967C304.693 60.3096 303.694 59.1895 302.987 57.7363C302.301 56.263 301.958 54.4971 301.958 52.4385V49.8955C301.958 47.736 302.311 45.9196 303.018 44.4463C303.724 42.9528 304.693 41.8226 305.924 41.0557C307.155 40.2887 308.548 39.9053 310.102 39.9053C311.676 39.9053 313.058 40.2686 314.249 40.9951C315.46 41.7217 316.398 42.8317 317.064 44.3252C317.751 45.7985 318.094 47.6553 318.094 49.8955V52.4385L321.333 48.1094H298.628V52.7412H324.512V50.5312C324.512 47.3424 323.926 44.5472 322.756 42.1455C321.585 39.7236 319.92 37.8568 317.761 36.5449C315.621 35.2129 313.058 34.5469 310.071 34.5469C307.104 34.5469 304.521 35.2432 302.321 36.6357C300.121 38.0081 298.416 39.9456 297.205 42.4482C295.994 44.9307 295.389 47.8268 295.389 51.1367V51.167C295.389 54.5173 295.984 57.4336 297.175 59.916C298.386 62.3783 300.111 64.2855 302.352 65.6377C304.612 66.9697 307.296 67.6357 310.404 67.6357Z" fill="#00A8FF"/>
  <path d="M340.405 67H349.548V30.8535H362.202V23.3154H327.781V30.8535H340.405V67ZM366.713 67H375.553V48.4121C375.553 46.9993 375.815 45.7581 376.34 44.6885C376.885 43.5986 377.632 42.751 378.58 42.1455C379.549 41.5199 380.679 41.207 381.971 41.207C383.989 41.207 385.533 41.8529 386.603 43.1445C387.692 44.416 388.237 46.182 388.237 48.4424V67H397.077V46.626C397.077 44.0023 396.613 41.7419 395.685 39.8447C394.776 37.9476 393.475 36.4844 391.779 35.4551C390.084 34.4056 388.056 33.8809 385.694 33.8809C383.272 33.8809 381.214 34.4258 379.519 35.5156C377.843 36.5853 376.582 38.1292 375.734 40.1475H375.553V23.3154H366.713V67ZM417.542 67.666C419.863 67.666 421.881 67.3633 423.597 66.7578C425.332 66.1523 426.796 65.3451 427.986 64.3359C429.197 63.3268 430.156 62.2168 430.862 61.0059C431.569 59.7949 432.043 58.5941 432.285 57.4033L432.376 57.0703H424.263L424.202 57.252C424 57.8574 423.617 58.4528 423.052 59.0381C422.487 59.6234 421.76 60.1077 420.872 60.4912C419.984 60.8747 418.935 61.0664 417.724 61.0664C416.19 61.0664 414.868 60.7334 413.758 60.0674C412.648 59.3812 411.79 58.4023 411.185 57.1309C410.599 55.8594 410.307 54.3255 410.307 52.5293V49.1084C410.307 47.2516 410.599 45.6875 411.185 44.416C411.79 43.1243 412.618 42.1455 413.667 41.4795C414.737 40.8135 415.958 40.4805 417.33 40.4805C418.702 40.4805 419.903 40.8034 420.933 41.4492C421.982 42.0951 422.799 43.0638 423.385 44.3555C423.97 45.627 424.263 47.2113 424.263 49.1084V52.499L428.471 47.292H405.917V52.8623H432.648V50.1377C432.648 46.8682 432.013 44.0124 430.741 41.5703C429.49 39.1283 427.704 37.2412 425.383 35.9092C423.082 34.557 420.347 33.8809 417.179 33.8809C414.01 33.8809 411.255 34.5771 408.914 35.9697C406.593 37.3421 404.787 39.2998 403.495 41.8428C402.224 44.3656 401.588 47.3525 401.588 50.8037V50.834C401.588 54.2852 402.224 57.2721 403.495 59.7949C404.787 62.3177 406.623 64.2653 409.005 65.6377C411.386 66.9899 414.232 67.666 417.542 67.666ZM437.22 67H446.06V47.4131C446.06 46.182 446.292 45.1022 446.756 44.1738C447.24 43.2454 447.906 42.5189 448.754 41.9941C449.602 41.4694 450.58 41.207 451.69 41.207C453.325 41.207 454.607 41.6914 455.535 42.6602C456.464 43.6289 456.928 44.9912 456.928 46.7471V67H465.435V47.2617C465.435 46.0508 465.667 44.9912 466.131 44.083C466.595 43.1748 467.241 42.4684 468.068 41.9639C468.916 41.4593 469.895 41.207 471.005 41.207C472.72 41.207 474.032 41.7116 474.94 42.7207C475.849 43.7096 476.303 45.1426 476.303 47.0195V67H485.143V44.8096C485.143 42.6097 484.699 40.6924 483.811 39.0576C482.923 37.4229 481.681 36.1514 480.087 35.2432C478.493 34.335 476.636 33.8809 474.517 33.8809C472.922 33.8809 471.449 34.1533 470.097 34.6982C468.765 35.2432 467.604 36.0202 466.615 37.0293C465.646 38.0182 464.92 39.1989 464.436 40.5713H464.254C463.911 39.1383 463.315 37.9274 462.468 36.9385C461.64 35.9495 460.621 35.1927 459.41 34.668C458.199 34.1432 456.837 33.8809 455.323 33.8809C453.144 33.8809 451.246 34.4359 449.632 35.5459C448.037 36.6559 446.907 38.1393 446.241 39.9961H446.06V34.5469H437.22V67ZM505.517 67.666C507.838 67.666 509.856 67.3633 511.571 66.7578C513.307 66.1523 514.77 65.3451 515.961 64.3359C517.172 63.3268 518.131 62.2168 518.837 61.0059C519.543 59.7949 520.018 58.5941 520.26 57.4033L520.351 57.0703H512.237L512.177 57.252C511.975 57.8574 511.591 58.4528 511.026 59.0381C510.461 59.6234 509.735 60.1077 508.847 60.4912C507.959 60.8747 506.909 61.0664 505.698 61.0664C504.164 61.0664 502.842 60.7334 501.732 60.0674C500.622 59.3812 499.765 58.4023 499.159 57.1309C498.574 55.8594 498.281 54.3255 498.281 52.5293V49.1084C498.281 47.2516 498.574 45.6875 499.159 44.416C499.765 43.1243 500.592 42.1455 501.642 41.4795C502.711 40.8135 503.932 40.4805 505.305 40.4805C506.677 40.4805 507.878 40.8034 508.907 41.4492C509.957 42.0951 510.774 43.0638 511.359 44.3555C511.945 45.627 512.237 47.2113 512.237 49.1084V52.499L516.445 47.292H493.892V52.8623H520.623V50.1377C520.623 46.8682 519.987 44.0124 518.716 41.5703C517.465 39.1283 515.678 37.2412 513.357 35.9092C511.057 34.557 508.322 33.8809 505.153 33.8809C501.985 33.8809 499.23 34.5771 496.889 35.9697C494.568 37.3421 492.761 39.2998 491.47 41.8428C490.198 44.3656 489.562 47.3525 489.562 50.8037V50.834C489.562 54.2852 490.198 57.2721 491.47 59.7949C492.761 62.3177 494.598 64.2653 496.979 65.6377C499.361 66.9899 502.207 67.666 505.517 67.666ZM538.545 67.666C541.33 67.666 543.782 67.2321 545.901 66.3643C548.041 65.4762 549.716 64.2451 550.927 62.6709C552.138 61.0967 552.743 59.25 552.743 57.1309V57.1006C552.743 54.7191 551.996 52.8219 550.503 51.4092C549.03 49.9964 546.588 48.9368 543.177 48.2305L537.667 47.0498C536.032 46.7067 534.892 46.2526 534.246 45.6875C533.6 45.1224 533.277 44.4261 533.277 43.5986V43.5684C533.277 42.862 533.479 42.2565 533.883 41.752C534.286 41.2272 534.862 40.8236 535.608 40.541C536.355 40.2585 537.233 40.1172 538.242 40.1172C539.877 40.1172 541.159 40.5107 542.087 41.2979C543.035 42.0648 543.58 43.0335 543.722 44.2041L543.752 44.4463H551.896V44.1436C551.835 42.2464 551.26 40.5208 550.17 38.9668C549.1 37.4128 547.556 36.1816 545.538 35.2734C543.54 34.3451 541.108 33.8809 538.242 33.8809C535.497 33.8809 533.096 34.3047 531.037 35.1523C528.999 35.9798 527.424 37.1504 526.314 38.6641C525.204 40.1777 524.649 41.974 524.649 44.0527V44.083C524.649 46.5049 525.437 48.5029 527.011 50.0771C528.605 51.6312 530.977 52.7412 534.125 53.4072L539.635 54.5576C541.229 54.9209 542.339 55.3649 542.965 55.8896C543.59 56.4144 543.903 57.1107 543.903 57.9785V58.0088C543.903 58.7152 543.681 59.3206 543.237 59.8252C542.813 60.3298 542.208 60.7233 541.421 61.0059C540.634 61.2682 539.675 61.3994 538.545 61.3994C536.789 61.3994 535.417 61.0462 534.428 60.3398C533.439 59.6335 532.803 58.6445 532.521 57.373L532.46 57.1006H523.832L523.862 57.373C524.104 59.4115 524.811 61.2077 525.981 62.7617C527.172 64.2956 528.817 65.4964 530.916 66.3643C533.015 67.2321 535.558 67.666 538.545 67.666Z" fill="white"/>
  <rect x="16" y="13" width="13.8378" height="6.91892" rx="3.45946" fill="#B8E63B"/>
  <rect x="37.6216" y="13" width="42.3784" height="6.91892" rx="3.45946" fill="#6D6D71"/>
  <rect x="22.054" y="25.973" width="28.5405" height="6.91892" rx="3.45946" fill="#6D6D71"/>
  <rect x="58.3784" y="25.973" width="21.6216" height="6.91892" rx="3.45946" fill="#E70258"/>
  <rect x="29.8379" y="40.6757" width="12.973" height="6.91892" rx="3.45946" fill="#880055"/>
  <rect x="51.4595" y="40.6757" width="28.5405" height="6.91892" rx="3.45946" fill="#6D6D71"/>
  <rect x="22.9189" y="55.3784" width="36.3243" height="6.91892" rx="3.45946" fill="#6D6D71"/>
  <rect x="66.1621" y="55.3784" width="13.8378" height="6.91892" rx="3.45946" fill="#FAF100"/>
  <rect x="58.3784" y="70.0811" width="21.6216" height="6.91892" rx="3.45946" fill="#6D6D71"/>
  <rect x="16" y="70.0811" width="36.3243" height="6.91892" rx="3.45946" fill="#00A8FF"/>
</svg>
