<?xml version="1.0" encoding="UTF-8"?>
<svg width="236px" height="27px" viewBox="0 0 236 27" version="1.1" xmlns="http://www.w3.org/2000/svg" xmlns:xlink="http://www.w3.org/1999/xlink">
    <!-- Generator: Sketch 48.2 (47327) - http://www.bohemiancoding.com/sketch -->
    <title>Logo</title>
    <desc>Created with Sketch.</desc>
    <defs>
        <linearGradient x1="86.0679706%" y1="84.9962616%" x2="14.6501854%" y2="13.5784763%" id="linearGradient-1">
            <stop stop-color="#00A3F7" offset="0%"></stop>
            <stop stop-color="#47B8F2" offset="100%"></stop>
        </linearGradient>
        <linearGradient x1="19.0359894%" y1="10.2533325%" x2="86.8937151%" y2="83.816963%" id="linearGradient-2">
            <stop stop-color="#FFFFFF" offset="0%"></stop>
            <stop stop-color="#0078B6" offset="100%"></stop>
        </linearGradient>
        <path d="M3.86683242,4.22152699 C9.05676089,-0.968401475 17.0212382,-1.42058883 21.6587133,3.21688626 C24.556006,6.11417899 24.5670899,10.8005347 21.6834698,13.6841548 L19.8351452,15.5324794 C18.9700592,16.3975655 18.9733844,17.8034722 19.8425722,18.67266 C20.2412691,19.071357 20.7651277,19.2819402 21.2885901,19.3250471 C21.8120031,19.3472194 22.3358616,19.5578026 22.7450506,19.9669916 C23.6142384,20.8361794 23.6175636,22.2420861 22.7524776,23.1071722 C17.5619615,28.2976883 9.1265211,28.2777373 3.9113942,23.0626104 C-1.30373271,17.8474835 -1.3236837,9.41204311 3.86683242,4.22152699 Z M3.79303627,17.8450943 C3.79303627,19.0743115 4.7848112,20.0707889 6.00822758,20.0707889 C7.23164397,20.0707889 8.2234189,19.0743115 8.2234189,17.8450943 C8.2234189,16.6158771 7.23164397,15.6193997 6.00822758,15.6193997 C4.7848112,15.6193997 3.79303627,16.6158771 3.79303627,17.8450943 Z M2.72678537,10.5056438 C2.72678537,11.734861 3.7185603,12.7313384 4.94197668,12.7313384 C6.16539307,12.7313384 7.157168,11.734861 7.157168,10.5056438 C7.157168,9.2764266 6.16539307,8.27994917 4.94197668,8.27994917 C3.7185603,8.27994917 2.72678537,9.2764266 2.72678537,10.5056438 Z M7.94075162,5.28149301 C7.94075162,6.51071021 8.93252655,7.50718763 10.1559429,7.50718763 C11.3793593,7.50718763 12.3711343,6.51071021 12.3711343,5.28149301 C12.3711343,4.05227581 11.3793593,3.05579838 10.1559429,3.05579838 C8.93252655,3.05579838 7.94075162,4.05227581 7.94075162,5.28149301 Z M15.2658982,6.32846029 C15.2658982,7.55767749 16.2576732,8.55415492 17.4810895,8.55415492 C18.7045059,8.55415492 19.6962809,7.55767749 19.6962809,6.32846029 C19.6962809,5.09924309 18.7045059,4.10276566 17.4810895,4.10276566 C16.2576732,4.10276566 15.2658982,5.09924309 15.2658982,6.32846029 Z" id="path-3"></path>
    </defs>
    <g id="Logo" stroke="none" stroke-width="1" fill="none" fill-rule="evenodd" transform="translate(-3.000000, -5.000000)">
        <g>
            <g stroke-width="1" fill-rule="evenodd" transform="translate(36.000000, 1.000000)" font-family="Montserrat-Regular, Montserrat" font-size="26" font-weight="normal" id="vscodethemes" letter-spacing="0.822817683">
                <text>
                    <tspan x="0" y="25" fill="#00A6FF">vscode</tspan>
                    <tspan x="95.6249061" y="25" font-family="Montserrat-Bold, Montserrat" font-weight="bold" fill="#D4D4D4">themes</tspan>
                </text>
            </g>
            <g id="Icon" transform="translate(3.000000, 5.000000)" fill-rule="nonzero">
                <g id="Combined-Shape">
                    <use fill="url(#linearGradient-1)" fill-rule="evenodd" xlink:href="#path-3"></use>
                    <use fill-opacity="0.200000003" fill="url(#linearGradient-2)" fill-rule="evenodd" style="mix-blend-mode: color-burn;" xlink:href="#path-3"></use>
                </g>
            </g>
        </g>
    </g>
</svg>